{
    "asset" : {
        "extensions" : {
            "ASOBO_normal_map_convention" : {
                "tangent_space_convention" : "DirectX"
            }
        },
        "generator" : "Extended Khronos glTF Blender I/O v1.0.0",
        "version" : "2.0"
    },
    "extensionsUsed" : [
        "ASOBO_normal_map_convention"
    ],
    "scene" : 0,
    "scenes" : [
        {
            "extras" : {
                "glTF2ExportSettings" : {
                    "export_extras" : 1,
                    "export_generate_guid" : 1,
                    "export_texture_dir" : "..\\texture",
                    "export_xml" : 1,
                    "export_xml_file" : "Lecu_eurocopter",
                    "use_selection" : 1
                }
            },
            "name" : "Scene",
            "nodes" : [
                0
            ]
        }
    ],
    "nodes" : [
        {
            "mesh" : 0,
            "name" : "hangares_eurocopter",
            "rotation" : [
                0.4696117639541626,
                -0.5286442637443542,
                0.5286443829536438,
                0.4696117043495178
            ]
        }
    ],
    "materials" : [
        {
            "doubleSided" : true,
            "emissiveFactor" : [
                0,
                0,
                0
            ],
            "name" : "FrontColor.002",
            "pbrMetallicRoughness" : {
                "baseColorFactor" : [
                    1,
                    1,
                    1,
                    1
                ],
                "metallicFactor" : 0,
                "roughnessFactor" : 1
            }
        },
        {
            "doubleSided" : true,
            "emissiveFactor" : [
                0,
                0,
                0
            ],
            "name" : "eurocopter_textura",
            "pbrMetallicRoughness" : {
                "baseColorTexture" : {
                    "index" : 0,
                    "texCoord" : 0
                },
                "metallicFactor" : 0,
                "roughnessFactor" : 1
            }
        },
        {
            "doubleSided" : true,
            "emissiveFactor" : [
                0,
                0,
                0
            ],
            "name" : "eurocopter_puerta",
            "pbrMetallicRoughness" : {
                "baseColorTexture" : {
                    "index" : 1,
                    "texCoord" : 0
                },
                "metallicFactor" : 0,
                "roughnessFactor" : 1
            }
        },
        {
            "doubleSided" : true,
            "emissiveFactor" : [
                0,
                0,
                0
            ],
            "name" : "eurocopter_front",
            "pbrMetallicRoughness" : {
                "baseColorTexture" : {
                    "index" : 2,
                    "texCoord" : 0
                },
                "metallicFactor" : 0,
                "roughnessFactor" : 1
            }
        },
        {
            "doubleSided" : true,
            "emissiveFactor" : [
                0,
                0,
                0
            ],
            "name" : "eurocopter_techo",
            "pbrMetallicRoughness" : {
                "baseColorTexture" : {
                    "index" : 3,
                    "texCoord" : 0
                },
                "metallicFactor" : 0,
                "roughnessFactor" : 1
            }
        },
        {
            "doubleSided" : true,
            "emissiveFactor" : [
                0,
                0,
                0
            ],
            "name" : "eurocopter_back",
            "pbrMetallicRoughness" : {
                "baseColorTexture" : {
                    "index" : 4,
                    "texCoord" : 0
                },
                "metallicFactor" : 0,
                "roughnessFactor" : 1
            }
        },
        {
            "doubleSided" : true,
            "emissiveFactor" : [
                0,
                0,
                0
            ],
            "name" : "eurocopter_back1",
            "pbrMetallicRoughness" : {
                "baseColorTexture" : {
                    "index" : 5,
                    "texCoord" : 0
                },
                "metallicFactor" : 0,
                "roughnessFactor" : 1
            }
        },
        {
            "doubleSided" : true,
            "emissiveFactor" : [
                0,
                0,
                0
            ],
            "name" : "eurocopter_lateral2",
            "pbrMetallicRoughness" : {
                "baseColorTexture" : {
                    "index" : 6,
                    "texCoord" : 0
                },
                "metallicFactor" : 0,
                "roughnessFactor" : 1
            }
        },
        {
            "doubleSided" : true,
            "emissiveFactor" : [
                0,
                0,
                0
            ],
            "name" : "eurocopter_lateral",
            "pbrMetallicRoughness" : {
                "baseColorTexture" : {
                    "index" : 7,
                    "texCoord" : 0
                },
                "metallicFactor" : 0,
                "roughnessFactor" : 1
            }
        },
        {
            "doubleSided" : true,
            "emissiveFactor" : [
                0,
                0,
                0
            ],
            "name" : "eurocopter_techo1",
            "pbrMetallicRoughness" : {
                "baseColorTexture" : {
                    "index" : 8,
                    "texCoord" : 0
                },
                "metallicFactor" : 0,
                "roughnessFactor" : 1
            }
        },
        {
            "doubleSided" : true,
            "emissiveFactor" : [
                0,
                0,
                0
            ],
            "name" : "eurocpter_frontpeq",
            "pbrMetallicRoughness" : {
                "baseColorTexture" : {
                    "index" : 9,
                    "texCoord" : 0
                },
                "metallicFactor" : 0,
                "roughnessFactor" : 1
            }
        }
    ],
    "meshes" : [
        {
            "name" : "hangares_eurocopter",
            "primitives" : [
                {
                    "attributes" : {
                        "POSITION" : 0,
                        "NORMAL" : 1,
                        "TEXCOORD_0" : 2
                    },
                    "indices" : 3,
                    "material" : 0
                },
                {
                    "attributes" : {
                        "POSITION" : 4,
                        "NORMAL" : 5,
                        "TEXCOORD_0" : 6
                    },
                    "indices" : 7,
                    "material" : 1
                },
                {
                    "attributes" : {
                        "POSITION" : 8,
                        "NORMAL" : 9,
                        "TEXCOORD_0" : 10
                    },
                    "indices" : 11,
                    "material" : 2
                },
                {
                    "attributes" : {
                        "POSITION" : 12,
                        "NORMAL" : 13,
                        "TEXCOORD_0" : 14
                    },
                    "indices" : 11,
                    "material" : 3
                },
                {
                    "attributes" : {
                        "POSITION" : 15,
                        "NORMAL" : 16,
                        "TEXCOORD_0" : 17
                    },
                    "indices" : 18,
                    "material" : 4
                },
                {
                    "attributes" : {
                        "POSITION" : 19,
                        "NORMAL" : 20,
                        "TEXCOORD_0" : 21
                    },
                    "indices" : 11,
                    "material" : 5
                },
                {
                    "attributes" : {
                        "POSITION" : 22,
                        "NORMAL" : 23,
                        "TEXCOORD_0" : 24
                    },
                    "indices" : 25,
                    "material" : 6
                },
                {
                    "attributes" : {
                        "POSITION" : 26,
                        "NORMAL" : 27,
                        "TEXCOORD_0" : 28
                    },
                    "indices" : 11,
                    "material" : 7
                },
                {
                    "attributes" : {
                        "POSITION" : 29,
                        "NORMAL" : 30,
                        "TEXCOORD_0" : 31
                    },
                    "indices" : 11,
                    "material" : 8
                },
                {
                    "attributes" : {
                        "POSITION" : 32,
                        "NORMAL" : 33,
                        "TEXCOORD_0" : 34
                    },
                    "indices" : 11,
                    "material" : 9
                },
                {
                    "attributes" : {
                        "POSITION" : 35,
                        "NORMAL" : 36,
                        "TEXCOORD_0" : 37
                    },
                    "indices" : 11,
                    "material" : 10
                }
            ]
        }
    ],
    "textures" : [
        {
            "source" : 0
        },
        {
            "source" : 1
        },
        {
            "source" : 2
        },
        {
            "source" : 3
        },
        {
            "source" : 4
        },
        {
            "source" : 5
        },
        {
            "source" : 6
        },
        {
            "source" : 7
        },
        {
            "source" : 8
        },
        {
            "source" : 9
        }
    ],
    "images" : [
        {
            "mimeType" : "image/png",
            "name" : "eurocopter_textura",
            "uri" : "eurocopter_textura.png"
        },
        {
            "mimeType" : "image/png",
            "name" : "eurocopter_puerta",
            "uri" : "eurocopter_puerta.png"
        },
        {
            "mimeType" : "image/png",
            "name" : "eurocopter_front",
            "uri" : "eurocopter_front.png"
        },
        {
            "mimeType" : "image/png",
            "name" : "eurocopter_techo",
            "uri" : "eurocopter_techo.png"
        },
        {
            "mimeType" : "image/png",
            "name" : "eurocopter_back",
            "uri" : "eurocopter_back.png"
        },
        {
            "mimeType" : "image/png",
            "name" : "eurocopter_back1",
            "uri" : "eurocopter_back1.png"
        },
        {
            "mimeType" : "image/png",
            "name" : "eurocopter_lateral2",
            "uri" : "eurocopter_lateral2.png"
        },
        {
            "mimeType" : "image/png",
            "name" : "eurocopter_lateral",
            "uri" : "eurocopter_lateral.png"
        },
        {
            "mimeType" : "image/png",
            "name" : "eurocopter_techo1",
            "uri" : "eurocopter_techo1.png"
        },
        {
            "mimeType" : "image/png",
            "name" : "eurocpter_frontpeq",
            "uri" : "eurocpter_frontpeq.png"
        }
    ],
    "accessors" : [
        {
            "bufferView" : 0,
            "componentType" : 5126,
            "count" : 14,
            "max" : [
                94.94000244140625,
                0,
                0
            ],
            "min" : [
                0,
                -72.16000366210938,
                -7.190000057220459
            ],
            "type" : "VEC3"
        },
        {
            "bufferView" : 1,
            "componentType" : 5126,
            "count" : 14,
            "type" : "VEC3"
        },
        {
            "bufferView" : 2,
            "componentType" : 5126,
            "count" : 14,
            "type" : "VEC2"
        },
        {
            "bufferView" : 3,
            "componentType" : 5123,
            "count" : 30,
            "type" : "SCALAR"
        },
        {
            "bufferView" : 4,
            "componentType" : 5126,
            "count" : 17,
            "max" : [
                94.94000244140625,
                0,
                0
            ],
            "min" : [
                0,
                -51.060001373291016,
                -10.770000457763672
            ],
            "type" : "VEC3"
        },
        {
            "bufferView" : 5,
            "componentType" : 5126,
            "count" : 17,
            "type" : "VEC3"
        },
        {
            "bufferView" : 6,
            "componentType" : 5126,
            "count" : 17,
            "type" : "VEC2"
        },
        {
            "bufferView" : 7,
            "componentType" : 5123,
            "count" : 27,
            "type" : "SCALAR"
        },
        {
            "bufferView" : 8,
            "componentType" : 5126,
            "count" : 4,
            "max" : [
                88.36309814453125,
                0,
                0
            ],
            "min" : [
                0,
                0,
                -10.770000457763672
            ],
            "type" : "VEC3"
        },
        {
            "bufferView" : 9,
            "componentType" : 5126,
            "count" : 4,
            "type" : "VEC3"
        },
        {
            "bufferView" : 10,
            "componentType" : 5126,
            "count" : 4,
            "type" : "VEC2"
        },
        {
            "bufferView" : 11,
            "componentType" : 5123,
            "count" : 6,
            "type" : "SCALAR"
        },
        {
            "bufferView" : 12,
            "componentType" : 5126,
            "count" : 4,
            "max" : [
                94.94000244140625,
                0,
                0
            ],
            "min" : [
                88.36309814453125,
                0,
                -10.770000457763672
            ],
            "type" : "VEC3"
        },
        {
            "bufferView" : 13,
            "componentType" : 5126,
            "count" : 4,
            "type" : "VEC3"
        },
        {
            "bufferView" : 14,
            "componentType" : 5126,
            "count" : 4,
            "type" : "VEC2"
        },
        {
            "bufferView" : 15,
            "componentType" : 5126,
            "count" : 8,
            "max" : [
                94.94000244140625,
                0,
                -10.770000457763672
            ],
            "min" : [
                0,
                -51.060001373291016,
                -10.770000457763672
            ],
            "type" : "VEC3"
        },
        {
            "bufferView" : 16,
            "componentType" : 5126,
            "count" : 8,
            "type" : "VEC3"
        },
        {
            "bufferView" : 17,
            "componentType" : 5126,
            "count" : 8,
            "type" : "VEC2"
        },
        {
            "bufferView" : 18,
            "componentType" : 5123,
            "count" : 18,
            "type" : "SCALAR"
        },
        {
            "bufferView" : 19,
            "componentType" : 5126,
            "count" : 4,
            "max" : [
                79.14800262451172,
                -51.060001373291016,
                0
            ],
            "min" : [
                58.62269973754883,
                -51.060001373291016,
                -10.770000457763672
            ],
            "type" : "VEC3"
        },
        {
            "bufferView" : 20,
            "componentType" : 5126,
            "count" : 4,
            "type" : "VEC3"
        },
        {
            "bufferView" : 21,
            "componentType" : 5126,
            "count" : 4,
            "type" : "VEC2"
        },
        {
            "bufferView" : 22,
            "componentType" : 5126,
            "count" : 5,
            "max" : [
                58.62269973754883,
                -51.060001373291016,
                0
            ],
            "min" : [
                10.289999961853027,
                -51.060001373291016,
                -10.770000457763672
            ],
            "type" : "VEC3"
        },
        {
            "bufferView" : 23,
            "componentType" : 5126,
            "count" : 5,
            "type" : "VEC3"
        },
        {
            "bufferView" : 24,
            "componentType" : 5126,
            "count" : 5,
            "type" : "VEC2"
        },
        {
            "bufferView" : 25,
            "componentType" : 5123,
            "count" : 9,
            "type" : "SCALAR"
        },
        {
            "bufferView" : 26,
            "componentType" : 5126,
            "count" : 4,
            "max" : [
                10.289999961853027,
                -51.060001373291016,
                0
            ],
            "min" : [
                10.289999961853027,
                -72.16000366210938,
                -7.190000057220459
            ],
            "type" : "VEC3"
        },
        {
            "bufferView" : 27,
            "componentType" : 5126,
            "count" : 4,
            "type" : "VEC3"
        },
        {
            "bufferView" : 28,
            "componentType" : 5126,
            "count" : 4,
            "type" : "VEC2"
        },
        {
            "bufferView" : 29,
            "componentType" : 5126,
            "count" : 4,
            "max" : [
                0,
                -51.060001373291016,
                0
            ],
            "min" : [
                0,
                -72.16000366210938,
                -7.190000057220459
            ],
            "type" : "VEC3"
        },
        {
            "bufferView" : 30,
            "componentType" : 5126,
            "count" : 4,
            "type" : "VEC3"
        },
        {
            "bufferView" : 31,
            "componentType" : 5126,
            "count" : 4,
            "type" : "VEC2"
        },
        {
            "bufferView" : 32,
            "componentType" : 5126,
            "count" : 4,
            "max" : [
                10.289999961853027,
                -51.060001373291016,
                -7.190000057220459
            ],
            "min" : [
                0,
                -72.16000366210938,
                -7.190000057220459
            ],
            "type" : "VEC3"
        },
        {
            "bufferView" : 33,
            "componentType" : 5126,
            "count" : 4,
            "type" : "VEC3"
        },
        {
            "bufferView" : 34,
            "componentType" : 5126,
            "count" : 4,
            "type" : "VEC2"
        },
        {
            "bufferView" : 35,
            "componentType" : 5126,
            "count" : 4,
            "max" : [
                10.289999961853027,
                -72.16000366210938,
                0
            ],
            "min" : [
                0,
                -72.16000366210938,
                -7.190000057220459
            ],
            "type" : "VEC3"
        },
        {
            "bufferView" : 36,
            "componentType" : 5126,
            "count" : 4,
            "type" : "VEC3"
        },
        {
            "bufferView" : 37,
            "componentType" : 5126,
            "count" : 4,
            "type" : "VEC2"
        }
    ],
    "bufferViews" : [
        {
            "buffer" : 0,
            "byteLength" : 168,
            "byteOffset" : 0
        },
        {
            "buffer" : 0,
            "byteLength" : 168,
            "byteOffset" : 168
        },
        {
            "buffer" : 0,
            "byteLength" : 112,
            "byteOffset" : 336
        },
        {
            "buffer" : 0,
            "byteLength" : 60,
            "byteOffset" : 448
        },
        {
            "buffer" : 0,
            "byteLength" : 204,
            "byteOffset" : 508
        },
        {
            "buffer" : 0,
            "byteLength" : 204,
            "byteOffset" : 712
        },
        {
            "buffer" : 0,
            "byteLength" : 136,
            "byteOffset" : 916
        },
        {
            "buffer" : 0,
            "byteLength" : 54,
            "byteOffset" : 1052
        },
        {
            "buffer" : 0,
            "byteLength" : 48,
            "byteOffset" : 1108
        },
        {
            "buffer" : 0,
            "byteLength" : 48,
            "byteOffset" : 1156
        },
        {
            "buffer" : 0,
            "byteLength" : 32,
            "byteOffset" : 1204
        },
        {
            "buffer" : 0,
            "byteLength" : 12,
            "byteOffset" : 1236
        },
        {
            "buffer" : 0,
            "byteLength" : 48,
            "byteOffset" : 1248
        },
        {
            "buffer" : 0,
            "byteLength" : 48,
            "byteOffset" : 1296
        },
        {
            "buffer" : 0,
            "byteLength" : 32,
            "byteOffset" : 1344
        },
        {
            "buffer" : 0,
            "byteLength" : 96,
            "byteOffset" : 1376
        },
        {
            "buffer" : 0,
            "byteLength" : 96,
            "byteOffset" : 1472
        },
        {
            "buffer" : 0,
            "byteLength" : 64,
            "byteOffset" : 1568
        },
        {
            "buffer" : 0,
            "byteLength" : 36,
            "byteOffset" : 1632
        },
        {
            "buffer" : 0,
            "byteLength" : 48,
            "byteOffset" : 1668
        },
        {
            "buffer" : 0,
            "byteLength" : 48,
            "byteOffset" : 1716
        },
        {
            "buffer" : 0,
            "byteLength" : 32,
            "byteOffset" : 1764
        },
        {
            "buffer" : 0,
            "byteLength" : 60,
            "byteOffset" : 1796
        },
        {
            "buffer" : 0,
            "byteLength" : 60,
            "byteOffset" : 1856
        },
        {
            "buffer" : 0,
            "byteLength" : 40,
            "byteOffset" : 1916
        },
        {
            "buffer" : 0,
            "byteLength" : 18,
            "byteOffset" : 1956
        },
        {
            "buffer" : 0,
            "byteLength" : 48,
            "byteOffset" : 1976
        },
        {
            "buffer" : 0,
            "byteLength" : 48,
            "byteOffset" : 2024
        },
        {
            "buffer" : 0,
            "byteLength" : 32,
            "byteOffset" : 2072
        },
        {
            "buffer" : 0,
            "byteLength" : 48,
            "byteOffset" : 2104
        },
        {
            "buffer" : 0,
            "byteLength" : 48,
            "byteOffset" : 2152
        },
        {
            "buffer" : 0,
            "byteLength" : 32,
            "byteOffset" : 2200
        },
        {
            "buffer" : 0,
            "byteLength" : 48,
            "byteOffset" : 2232
        },
        {
            "buffer" : 0,
            "byteLength" : 48,
            "byteOffset" : 2280
        },
        {
            "buffer" : 0,
            "byteLength" : 32,
            "byteOffset" : 2328
        },
        {
            "buffer" : 0,
            "byteLength" : 48,
            "byteOffset" : 2360
        },
        {
            "buffer" : 0,
            "byteLength" : 48,
            "byteOffset" : 2408
        },
        {
            "buffer" : 0,
            "byteLength" : 32,
            "byteOffset" : 2456
        }
    ],
    "buffers" : [
        {
            "byteLength" : 2488,
            "uri" : "Lecu_eurocopter.bin"
        }
    ]
}
